<svg version="1.1" id="Layer_1" xmlns="http://www.w3.org/2000/svg" xmlns:xlink="http://www.w3.org/1999/xlink" x="0px" y="0px"
	 width="100%" viewBox="0 0 512 138" enable-background="new 0 0 512 138" xml:space="preserve">
<path fill="#000000" opacity="1.000000" stroke="none" 
	d="
M373.000000,139.000000 
	C248.666718,139.000000 124.833420,139.000000 1.000100,139.000000 
	C1.000067,93.000061 1.000067,47.000122 1.000033,1.000137 
	C171.666550,1.000091 342.333099,1.000091 512.999756,1.000046 
	C512.999817,46.999863 512.999817,92.999725 512.999878,138.999786 
	C466.500000,139.000000 420.000000,139.000000 373.000000,139.000000 
M507.679047,105.935059 
	C510.580902,102.796379 510.745667,97.599380 508.027924,94.932556 
	C505.200287,92.157928 498.936096,92.450348 496.239136,95.482826 
	C493.517822,98.542725 493.805542,104.077965 496.824249,106.739609 
	C500.248199,109.758553 504.059906,109.493683 506.956116,106.053688 
	C506.956116,106.053688 506.924957,106.081085 507.679047,105.935059 
M40.221333,119.439507 
	C48.758316,113.346481 54.653217,105.168266 58.990368,95.741821 
	C63.816685,85.252205 64.611984,74.131081 63.968937,62.850380 
	C63.140877,48.323986 57.617119,35.453911 49.231663,23.776083 
	C44.370018,17.005621 39.134209,10.503840 33.620934,3.482559 
	C31.890665,6.003968 30.364662,8.700367 28.386545,11.009452 
	C24.561539,15.474438 19.872976,19.309935 16.616066,24.131615 
	C4.504614,42.061970 0.907269,62.151257 5.345234,83.010208 
	C8.684341,98.704399 17.704683,111.577599 30.991989,121.949150 
	C31.659191,126.078659 32.169441,130.243713 33.091579,134.315491 
	C33.359695,135.499374 34.805428,136.416565 36.300915,138.132492 
	C37.671589,131.015991 38.733681,125.501625 40.221333,119.439507 
M417.438995,103.038605 
	C428.933441,95.207802 432.497559,83.871529 430.578033,70.831047 
	C428.654907,57.766205 420.767426,49.507156 406.738770,47.724712 
	C394.950836,46.226959 382.846161,47.124352 370.884186,47.233723 
	C369.582703,47.245621 368.297760,49.062141 366.402039,50.498600 
	C376.988983,54.591511 377.120972,54.593494 376.963013,65.114464 
	C376.801086,75.898743 376.287598,86.677383 376.055054,97.461227 
	C375.991455,100.411247 375.308197,102.490242 372.180756,103.585663 
	C370.989777,104.002823 370.282227,105.800056 369.354340,106.968315 
	C370.707458,107.636528 372.045349,108.843895 373.416260,108.882614 
	C380.563690,109.084457 387.812653,109.709518 394.846954,108.800140 
	C402.287262,107.838264 409.526001,105.317123 417.438995,103.038605 
M477.532318,72.390007 
	C482.975922,68.636139 483.884430,63.220268 482.512573,57.358788 
	C481.186798,51.694111 476.881653,48.485687 471.412811,48.108749 
	C460.827087,47.379128 450.191071,47.267094 439.574585,47.222878 
	C438.074402,47.216629 436.566681,49.029465 434.308167,50.487156 
	C443.997070,54.184856 443.998932,54.184856 443.998901,63.409367 
	C443.998871,74.225716 443.902527,85.043236 444.040070,95.857819 
	C444.092621,99.988991 443.121796,102.920891 438.619476,104.063057 
	C437.407959,104.370399 436.573883,106.165504 435.566559,107.277672 
	C436.814484,107.842857 438.053101,108.872169 439.311890,108.897461 
	C447.129852,109.054512 455.032806,109.673515 462.747223,108.770050 
	C468.654053,108.078270 474.877106,106.321579 479.985718,103.359215 
	C490.786957,97.095856 490.583496,83.244171 480.279999,76.144760 
	C479.073975,75.313782 478.204803,73.993965 477.532318,72.390007 
M125.055695,81.046318 
	C126.230499,76.587189 129.328415,74.687340 134.813400,75.049980 
	C139.542740,75.362671 141.608475,78.455505 141.849380,82.626076 
	C142.175232,88.267326 142.119476,93.949844 141.831161,99.594414 
	C141.755051,101.084740 140.245453,102.515022 139.350967,103.945900 
	C138.721283,104.953217 138.018585,105.914909 137.348480,106.896973 
	C138.351486,107.571297 139.330566,108.781815 140.361618,108.827843 
	C145.012375,109.035461 149.683212,109.031570 154.334015,108.821152 
	C155.407166,108.772598 156.429871,107.609726 157.475800,106.959648 
	C156.762848,106.008270 156.210922,104.450996 155.308838,104.211243 
	C151.566940,103.216736 150.956863,100.603516 150.993668,97.338440 
	C151.051834,92.178413 151.618484,86.911690 150.777878,81.889656 
	C150.109177,77.894630 148.546951,73.319969 145.812607,70.552834 
	C140.248260,64.921738 133.850067,67.751289 128.043015,71.077293 
	C125.691528,72.424118 123.829567,73.319397 121.428741,71.011391 
	C116.885292,66.643600 111.647339,66.739769 106.245186,69.386925 
	C104.199059,70.389565 102.163788,71.414322 99.848495,72.565804 
	C99.241600,70.794891 98.780457,69.449280 98.151749,67.614746 
	C93.052635,69.121483 88.226624,70.547523 83.400620,71.973564 
	C83.029633,72.602036 82.658646,73.230507 82.287666,73.858986 
	C92.755203,74.860916 90.925835,81.873367 90.991928,87.937904 
	C91.024582,90.933838 91.141487,93.944420 90.905640,96.923454 
	C90.656593,100.069267 90.331970,103.280670 86.330193,104.331703 
	C85.519501,104.544617 84.497192,106.010796 84.550735,106.835716 
	C84.597717,107.559647 85.997665,108.749756 86.832405,108.778023 
	C91.983650,108.952484 97.145966,108.923477 102.299324,108.776787 
	C103.062950,108.755051 104.417053,107.746506 104.411423,107.205818 
	C104.401421,106.245010 103.745445,104.648308 103.035019,104.443420 
	C98.927452,103.258812 99.007072,100.080658 99.007172,96.852867 
	C99.007317,92.191452 98.961327,87.529411 99.023376,82.868805 
	C99.089088,77.933189 101.796295,75.276772 107.477608,74.417290 
	C111.614601,73.791435 115.034935,76.099358 115.883743,81.016884 
	C116.696213,85.723923 116.722954,90.574112 116.977188,95.367638 
	C117.188683,99.355438 116.842766,103.071892 112.153084,104.674019 
	C111.385887,104.936119 110.742287,106.391930 110.634155,107.362068 
	C110.587685,107.778984 112.044258,108.786156 112.835480,108.805412 
	C118.156929,108.934944 123.485840,108.957329 128.805069,108.787079 
	C129.720581,108.757759 130.601364,107.642586 131.498184,107.028999 
	C130.804871,106.061508 130.270370,104.454140 129.391098,104.235901 
	C125.313782,103.223923 124.949013,100.305283 124.992874,96.927773 
	C125.057724,91.934212 125.018616,86.939301 125.055695,81.046318 
M280.391510,68.774597 
	C274.146179,70.516563 269.614502,74.122635 268.362579,80.737740 
	C266.997833,87.948730 270.391876,93.166573 276.267212,96.995041 
	C269.774658,103.515907 269.774658,103.515907 275.001251,109.816093 
	C273.664673,110.994232 272.318115,112.230995 270.919189,113.405350 
	C265.376587,118.058174 265.764832,125.811348 271.756287,129.801285 
	C282.187958,136.748123 300.356659,132.105621 306.293488,120.976303 
	C310.897522,112.345444 306.752502,104.325043 297.023987,103.118141 
	C293.401337,102.668716 289.738464,102.498352 286.140717,101.913177 
	C284.458557,101.639580 282.887573,100.682510 281.266205,100.035210 
	C281.111847,99.456917 280.957520,98.878616 280.803192,98.300316 
	C293.386261,96.240211 303.356293,91.806641 301.381653,76.479042 
	C306.297028,76.175972 309.616852,74.534302 308.692688,70.072495 
	C303.320770,69.545715 298.821838,68.960579 294.304230,68.702629 
	C289.919586,68.452278 285.515747,68.537804 280.391510,68.774597 
M218.989365,98.290413 
	C219.112732,101.163795 218.658066,103.554085 215.216888,104.364677 
	C214.453568,104.544472 213.462158,106.123940 213.567459,106.929260 
	C213.664520,107.671448 215.076843,108.768784 215.940155,108.797470 
	C221.265213,108.974518 226.601410,108.977638 231.927200,108.816879 
	C232.837250,108.789406 234.206772,107.850403 234.461777,107.046341 
	C234.691330,106.322525 233.800446,104.475830 233.201050,104.378983 
	C228.705444,103.652588 228.985397,100.382050 229.000244,97.160004 
	C229.024063,91.994003 228.715637,86.798889 229.196304,81.676964 
	C229.373993,79.783569 230.972931,77.346268 232.633636,76.389999 
	C238.850006,72.810516 245.368027,76.434418 245.869812,83.648788 
	C246.204422,88.459381 245.953293,93.309715 245.996017,98.141983 
	C246.020737,100.936989 245.869278,103.474419 242.353928,104.312271 
	C241.546051,104.504822 241.035294,105.943977 240.387802,106.809441 
	C241.357132,107.512596 242.304199,108.784546 243.299515,108.823486 
	C248.456436,109.025230 253.630310,109.024117 258.786560,108.810555 
	C259.775848,108.769577 260.712677,107.461632 261.673676,106.738159 
	C260.913513,105.834404 260.148315,104.934792 259.394287,104.025948 
	C258.240234,102.635040 256.256989,101.330162 256.091034,99.826988 
	C255.418365,93.734360 255.204071,87.583176 255.007706,81.447609 
	C254.635406,69.814804 246.022690,64.339264 235.597336,69.211807 
	C233.682358,70.106827 231.792206,71.054985 230.099548,71.877113 
	C229.037567,70.309448 228.035233,68.041801 227.489456,68.146820 
	C222.394684,69.127197 217.378265,70.514755 211.318085,72.041664 
	C218.321579,78.036476 218.431076,78.028755 218.996170,86.043533 
	C219.261795,89.810692 219.013321,93.614090 218.989365,98.290413 
M350.952637,72.517677 
	C342.624054,66.155220 333.694641,66.020416 324.798309,70.757942 
	C316.419922,75.219635 314.199799,82.892975 315.000916,91.946312 
	C315.964294,102.833801 326.327332,111.269737 336.805023,109.842346 
	C358.338318,106.908844 361.407684,83.940491 350.952637,72.517677 
M165.445648,95.751610 
	C168.304428,107.992348 181.403732,111.671577 190.556427,108.928162 
	C205.487625,104.452690 211.756592,85.407112 201.964966,74.394051 
	C195.393951,67.003319 187.506927,66.444008 178.850296,68.962219 
	C169.841721,71.582794 165.221329,78.007553 164.342316,87.102211 
	C164.094009,89.671417 164.901306,92.342636 165.445648,95.751610 
z"/>
<path fill="#10AA50" opacity="1.000000" stroke="none" 
	d="
M30.954521,121.114723 
	C17.704683,111.577599 8.684341,98.704399 5.345234,83.010208 
	C0.907269,62.151257 4.504614,42.061970 16.616066,24.131615 
	C19.872976,19.309935 24.561539,15.474438 28.386545,11.009452 
	C30.364662,8.700367 31.890665,6.003968 33.836933,4.148284 
	C34.367977,15.278743 34.903553,25.742416 34.953876,36.208424 
	C35.072254,60.829163 34.958950,85.451012 34.603634,110.210960 
	C33.163425,113.937912 32.058975,117.526314 30.954521,121.114723 
z"/>
<path fill="#12924F" opacity="1.000000" stroke="none" 
	d="
M34.939388,110.072418 
	C34.958950,85.451012 35.072254,60.829163 34.953876,36.208424 
	C34.903553,25.742416 34.367977,15.278743 34.059853,4.347579 
	C39.134209,10.503840 44.370018,17.005621 49.231663,23.776083 
	C57.617119,35.453911 63.140877,48.323986 63.968937,62.850380 
	C64.611984,74.131081 63.816685,85.252205 58.990368,95.741821 
	C54.653217,105.168266 48.758316,113.346481 39.688042,119.593597 
	C37.749630,116.522598 36.344509,113.297508 34.939388,110.072418 
z"/>
<path fill="#21313C" opacity="1.000000" stroke="none" 
	d="
M417.145874,103.257843 
	C409.526001,105.317123 402.287262,107.838264 394.846954,108.800140 
	C387.812653,109.709518 380.563690,109.084457 373.416260,108.882614 
	C372.045349,108.843895 370.707458,107.636528 369.354340,106.968323 
	C370.282227,105.800056 370.989777,104.002823 372.180756,103.585663 
	C375.308197,102.490242 375.991455,100.411247 376.055054,97.461227 
	C376.287598,86.677383 376.801086,75.898743 376.963013,65.114464 
	C377.120972,54.593494 376.988983,54.591511 366.402039,50.498600 
	C368.297760,49.062141 369.582703,47.245621 370.884186,47.233723 
	C382.846161,47.124352 394.950836,46.226959 406.738770,47.724712 
	C420.767426,49.507156 428.654907,57.766205 430.578033,70.831047 
	C432.497559,83.871529 428.933441,95.207802 417.145874,103.257843 
M412.987091,59.516159 
	C407.298035,54.257576 400.256348,52.594994 392.838257,52.067722 
	C389.258911,51.813301 387.064209,53.442986 387.059357,57.262932 
	C387.043304,69.921761 387.000153,82.581100 387.100250,95.239189 
	C387.129822,98.978973 389.142639,101.282036 392.874512,102.372009 
	C401.388916,104.858788 410.254242,101.789619 415.290405,94.545151 
	C421.356750,85.818855 421.823242,69.729439 412.987091,59.516159 
z"/>
<path fill="#21313C" opacity="1.000000" stroke="none" 
	d="
M477.355896,72.645386 
	C478.204803,73.993965 479.073975,75.313782 480.279999,76.144760 
	C490.583496,83.244171 490.786957,97.095856 479.985718,103.359215 
	C474.877106,106.321579 468.654053,108.078270 462.747223,108.770050 
	C455.032806,109.673515 447.129852,109.054512 439.311890,108.897461 
	C438.053101,108.872169 436.814484,107.842857 435.566559,107.277664 
	C436.573883,106.165504 437.407959,104.370399 438.619476,104.063057 
	C443.121796,102.920891 444.092621,99.988991 444.040070,95.857819 
	C443.902527,85.043236 443.998871,74.225716 443.998901,63.409367 
	C443.998932,54.184856 443.997070,54.184856 434.308167,50.487156 
	C436.566681,49.029465 438.074402,47.216629 439.574585,47.222878 
	C450.191071,47.267094 460.827087,47.379128 471.412811,48.108749 
	C476.881653,48.485687 481.186798,51.694111 482.512573,57.358788 
	C483.884430,63.220268 482.975922,68.636139 477.355896,72.645386 
M471.816925,81.550148 
	C467.547729,80.381897 463.326965,78.961769 458.993256,78.129242 
	C455.822327,77.520088 453.971558,79.205070 454.027771,82.660583 
	C454.084534,86.152336 453.878876,89.652840 454.046265,93.137115 
	C454.234436,97.054695 453.808960,102.092606 459.012024,102.688835 
	C467.498657,103.661308 471.856628,103.761574 475.178802,97.394379 
	C478.089813,91.815186 477.226685,87.334946 471.816925,81.550148 
M468.701111,71.514305 
	C472.781219,67.541100 473.561615,63.491932 471.187378,58.613647 
	C469.256470,54.646152 463.762482,52.383518 458.376953,53.049095 
	C453.529480,53.648174 455.010254,57.796768 454.337433,60.417530 
	C453.617950,63.220020 453.778900,66.382050 454.215668,69.287910 
	C454.414856,70.613220 456.158936,72.669403 457.272949,72.716324 
	C460.830902,72.866180 464.421967,72.230141 468.701111,71.514305 
z"/>
<path fill="#21313C" opacity="1.000000" stroke="none" 
	d="
M125.039734,81.495644 
	C125.018616,86.939301 125.057724,91.934212 124.992874,96.927773 
	C124.949013,100.305283 125.313782,103.223923 129.391098,104.235901 
	C130.270370,104.454140 130.804871,106.061508 131.498184,107.028999 
	C130.601364,107.642586 129.720581,108.757759 128.805069,108.787079 
	C123.485840,108.957329 118.156929,108.934944 112.835480,108.805412 
	C112.044258,108.786156 110.587685,107.778984 110.634155,107.362068 
	C110.742287,106.391930 111.385887,104.936119 112.153084,104.674019 
	C116.842766,103.071892 117.188683,99.355438 116.977188,95.367638 
	C116.722954,90.574112 116.696213,85.723923 115.883743,81.016884 
	C115.034935,76.099358 111.614601,73.791435 107.477608,74.417290 
	C101.796295,75.276772 99.089088,77.933189 99.023376,82.868805 
	C98.961327,87.529411 99.007317,92.191452 99.007172,96.852867 
	C99.007072,100.080658 98.927452,103.258812 103.035019,104.443420 
	C103.745445,104.648308 104.401421,106.245010 104.411423,107.205818 
	C104.417053,107.746506 103.062950,108.755051 102.299324,108.776787 
	C97.145966,108.923477 91.983650,108.952484 86.832405,108.778023 
	C85.997665,108.749756 84.597717,107.559647 84.550735,106.835716 
	C84.497192,106.010796 85.519501,104.544617 86.330193,104.331703 
	C90.331970,103.280670 90.656593,100.069267 90.905640,96.923454 
	C91.141487,93.944420 91.024582,90.933838 90.991928,87.937904 
	C90.925835,81.873367 92.755203,74.860916 82.287666,73.858986 
	C82.658646,73.230507 83.029633,72.602036 83.400620,71.973564 
	C88.226624,70.547523 93.052635,69.121483 98.151749,67.614746 
	C98.780457,69.449280 99.241600,70.794891 99.848495,72.565804 
	C102.163788,71.414322 104.199059,70.389565 106.245186,69.386925 
	C111.647339,66.739769 116.885292,66.643600 121.428741,71.011391 
	C123.829567,73.319397 125.691528,72.424118 128.043015,71.077293 
	C133.850067,67.751289 140.248260,64.921738 145.812607,70.552834 
	C148.546951,73.319969 150.109177,77.894630 150.777878,81.889656 
	C151.618484,86.911690 151.051834,92.178413 150.993668,97.338440 
	C150.956863,100.603516 151.566940,103.216736 155.308838,104.211243 
	C156.210922,104.450996 156.762848,106.008270 157.475800,106.959648 
	C156.429871,107.609726 155.407166,108.772598 154.334015,108.821152 
	C149.683212,109.031570 145.012375,109.035461 140.361618,108.827843 
	C139.330566,108.781815 138.351486,107.571297 137.348480,106.896973 
	C138.018585,105.914909 138.721283,104.953217 139.350967,103.945900 
	C140.245453,102.515022 141.755051,101.084740 141.831161,99.594414 
	C142.119476,93.949844 142.175232,88.267326 141.849380,82.626076 
	C141.608475,78.455505 139.542740,75.362671 134.813400,75.049980 
	C129.328415,74.687340 126.230499,76.587189 125.039734,81.495644 
z"/>
<path fill="#21313C" opacity="1.000000" stroke="none" 
	d="
M280.755920,68.625214 
	C285.515747,68.537804 289.919586,68.452278 294.304230,68.702629 
	C298.821838,68.960579 303.320770,69.545715 308.692688,70.072495 
	C309.616852,74.534302 306.297028,76.175972 301.381653,76.479042 
	C303.356293,91.806641 293.386261,96.240211 280.803192,98.300316 
	C280.957520,98.878616 281.111847,99.456917 281.266205,100.035210 
	C282.887573,100.682510 284.458557,101.639580 286.140717,101.913177 
	C289.738464,102.498352 293.401337,102.668716 297.023987,103.118141 
	C306.752502,104.325043 310.897522,112.345444 306.293488,120.976303 
	C300.356659,132.105621 282.187958,136.748123 271.756287,129.801285 
	C265.764832,125.811348 265.376587,118.058174 270.919189,113.405350 
	C272.318115,112.230995 273.664673,110.994232 275.001251,109.816093 
	C269.774658,103.515907 269.774658,103.515907 276.267212,96.995041 
	C270.391876,93.166573 266.997833,87.948730 268.362579,80.737740 
	C269.614502,74.122635 274.146179,70.516563 280.755920,68.625214 
M293.322113,126.231888 
	C294.067474,125.865669 295.127167,125.697113 295.503387,125.098785 
	C297.077240,122.595818 299.542511,119.956749 299.525726,117.381615 
	C299.513397,115.492004 296.406403,112.483154 294.222748,111.989456 
	C289.962341,111.026222 285.227081,110.740402 280.997650,111.635361 
	C278.723755,112.116524 275.998871,115.409920 275.514648,117.840271 
	C275.127686,119.782516 277.337219,123.652298 279.243774,124.352051 
	C283.400757,125.877785 288.099091,125.928566 293.322113,126.231888 
M279.569183,74.105217 
	C275.846863,78.155174 276.481659,82.733559 278.377899,87.176926 
	C280.256165,91.578171 285.641571,93.309769 289.179596,91.035698 
	C293.113678,88.507080 294.006836,81.926628 291.149139,76.525169 
	C288.928528,72.327896 285.212860,71.341957 279.569183,74.105217 
z"/>
<path fill="#21313C" opacity="1.000000" stroke="none" 
	d="
M218.993591,97.845741 
	C219.013321,93.614090 219.261795,89.810692 218.996170,86.043533 
	C218.431076,78.028755 218.321579,78.036476 211.318085,72.041664 
	C217.378265,70.514755 222.394684,69.127197 227.489456,68.146820 
	C228.035233,68.041801 229.037567,70.309448 230.099548,71.877113 
	C231.792206,71.054985 233.682358,70.106827 235.597336,69.211807 
	C246.022690,64.339264 254.635406,69.814804 255.007706,81.447609 
	C255.204071,87.583176 255.418365,93.734360 256.091034,99.826988 
	C256.256989,101.330162 258.240234,102.635040 259.394287,104.025948 
	C260.148315,104.934792 260.913513,105.834404 261.673676,106.738167 
	C260.712677,107.461632 259.775848,108.769577 258.786560,108.810555 
	C253.630310,109.024117 248.456436,109.025230 243.299515,108.823486 
	C242.304199,108.784546 241.357132,107.512596 240.387802,106.809441 
	C241.035294,105.943977 241.546051,104.504822 242.353928,104.312271 
	C245.869278,103.474419 246.020737,100.936989 245.996017,98.141983 
	C245.953293,93.309715 246.204422,88.459381 245.869812,83.648788 
	C245.368027,76.434418 238.850006,72.810516 232.633636,76.389999 
	C230.972931,77.346268 229.373993,79.783569 229.196304,81.676964 
	C228.715637,86.798889 229.024063,91.994003 229.000244,97.160004 
	C228.985397,100.382050 228.705444,103.652588 233.201050,104.378983 
	C233.800446,104.475830 234.691330,106.322525 234.461777,107.046341 
	C234.206772,107.850403 232.837250,108.789406 231.927200,108.816879 
	C226.601410,108.977638 221.265213,108.974518 215.940155,108.797470 
	C215.076843,108.768784 213.664520,107.671448 213.567459,106.929260 
	C213.462158,106.123940 214.453568,104.544472 215.216888,104.364677 
	C218.658066,103.554085 219.112732,101.163795 218.993591,97.845741 
z"/>
<path fill="#21313C" opacity="1.000000" stroke="none" 
	d="
M351.213928,72.777908 
	C361.407684,83.940491 358.338318,106.908844 336.805023,109.842346 
	C326.327332,111.269737 315.964294,102.833801 315.000916,91.946312 
	C314.199799,82.892975 316.419922,75.219635 324.798309,70.757942 
	C333.694641,66.020416 342.624054,66.155220 351.213928,72.777908 
M332.772736,73.057114 
	C330.590118,74.561981 327.597717,75.588799 326.374878,77.660248 
	C322.520721,84.189003 323.995941,95.735718 329.630096,100.731781 
	C332.035034,102.864349 336.112640,104.070221 339.396057,104.004044 
	C343.298187,103.925392 345.396698,100.603508 346.317566,96.627296 
	C347.693756,90.685066 347.048492,85.051300 344.293030,79.731133 
	C342.102966,75.502716 338.766998,72.686134 332.772736,73.057114 
z"/>
<path fill="#21313C" opacity="1.000000" stroke="none" 
	d="
M165.335052,95.359337 
	C164.901306,92.342636 164.094009,89.671417 164.342316,87.102211 
	C165.221329,78.007553 169.841721,71.582794 178.850296,68.962219 
	C187.506927,66.444008 195.393951,67.003319 201.964966,74.394051 
	C211.756592,85.407112 205.487625,104.452690 190.556427,108.928162 
	C181.403732,111.671577 168.304428,107.992348 165.335052,95.359337 
M174.110962,89.062378 
	C176.182922,93.289177 177.402588,98.338013 180.513123,101.563118 
	C186.126740,107.383476 193.817551,104.504654 196.094879,96.711121 
	C197.904068,90.519600 196.531891,84.818977 193.991806,79.324234 
	C191.753677,74.482689 187.235977,72.392952 182.060547,73.098885 
	C176.735992,73.825150 175.210114,77.869247 174.267288,82.224457 
	C173.852661,84.139839 174.104782,86.199570 174.110962,89.062378 
z"/>
<path fill="#22313C" opacity="1.000000" stroke="none" 
	d="
M506.989227,106.033226 
	C504.059906,109.493683 500.248199,109.758553 496.824249,106.739609 
	C493.805542,104.077965 493.517822,98.542725 496.239136,95.482826 
	C498.936096,92.450348 505.200287,92.157928 508.027924,94.932556 
	C510.745667,97.599380 510.580902,102.796379 507.377808,105.646179 
	C507.384399,102.900429 510.505096,100.414017 506.979248,97.779312 
	C504.122345,100.672272 504.427704,103.351334 506.989227,106.033226 
M503.562439,95.706230 
	C503.714966,95.360054 503.867523,95.013878 504.020081,94.667709 
	C503.596619,94.578911 503.173157,94.490120 502.749695,94.401321 
	C502.908783,94.781105 503.067841,95.160881 503.562439,95.706230 
z"/>
<path fill="#B5C3C0" opacity="1.000000" stroke="none" 
	d="
M34.603634,110.210960 
	C36.344509,113.297508 37.749630,116.522598 39.475262,119.867477 
	C38.733681,125.501625 37.671589,131.015991 36.300915,138.132492 
	C34.805428,136.416565 33.359695,135.499374 33.091579,134.315491 
	C32.169441,130.243713 31.659191,126.078659 30.973255,121.531937 
	C32.058975,117.526314 33.163425,113.937912 34.603634,110.210960 
z"/>
<path fill="#000000" opacity="1.000000" stroke="none" 
	d="
M413.240509,59.778801 
	C421.823242,69.729439 421.356750,85.818855 415.290405,94.545151 
	C410.254242,101.789619 401.388916,104.858788 392.874512,102.372009 
	C389.142639,101.282036 387.129822,98.978973 387.100250,95.239189 
	C387.000153,82.581100 387.043304,69.921761 387.059357,57.262932 
	C387.064209,53.442986 389.258911,51.813301 392.838257,52.067722 
	C400.256348,52.594994 407.298035,54.257576 413.240509,59.778801 
z"/>
<path fill="#000000" opacity="1.000000" stroke="none" 
	d="
M472.108887,81.787659 
	C477.226685,87.334946 478.089813,91.815186 475.178802,97.394379 
	C471.856628,103.761574 467.498657,103.661308 459.012024,102.688835 
	C453.808960,102.092606 454.234436,97.054695 454.046265,93.137115 
	C453.878876,89.652840 454.084534,86.152336 454.027771,82.660583 
	C453.971558,79.205070 455.822327,77.520088 458.993256,78.129242 
	C463.326965,78.961769 467.547729,80.381897 472.108887,81.787659 
z"/>
<path fill="#000000" opacity="1.000000" stroke="none" 
	d="
M468.350677,71.705933 
	C464.421967,72.230141 460.830902,72.866180 457.272949,72.716324 
	C456.158936,72.669403 454.414856,70.613220 454.215668,69.287910 
	C453.778900,66.382050 453.617950,63.220020 454.337433,60.417530 
	C455.010254,57.796768 453.529480,53.648174 458.376953,53.049095 
	C463.762482,52.383518 469.256470,54.646152 471.187378,58.613647 
	C473.561615,63.491932 472.781219,67.541100 468.350677,71.705933 
z"/>
<path fill="#000000" opacity="1.000000" stroke="none" 
	d="
M292.949158,126.406967 
	C288.099091,125.928566 283.400757,125.877785 279.243774,124.352051 
	C277.337219,123.652298 275.127686,119.782516 275.514648,117.840271 
	C275.998871,115.409920 278.723755,112.116524 280.997650,111.635361 
	C285.227081,110.740402 289.962341,111.026222 294.222748,111.989456 
	C296.406403,112.483154 299.513397,115.492004 299.525726,117.381615 
	C299.542511,119.956749 297.077240,122.595818 295.503387,125.098785 
	C295.127167,125.697113 294.067474,125.865669 292.949158,126.406967 
z"/>
<path fill="#000000" opacity="1.000000" stroke="none" 
	d="
M279.864197,73.857117 
	C285.212860,71.341957 288.928528,72.327896 291.149139,76.525169 
	C294.006836,81.926628 293.113678,88.507080 289.179596,91.035698 
	C285.641571,93.309769 280.256165,91.578171 278.377899,87.176926 
	C276.481659,82.733559 275.846863,78.155174 279.864197,73.857117 
z"/>
<path fill="#000000" opacity="1.000000" stroke="none" 
	d="
M333.179443,73.045860 
	C338.766998,72.686134 342.102966,75.502716 344.293030,79.731133 
	C347.048492,85.051300 347.693756,90.685066 346.317566,96.627296 
	C345.396698,100.603508 343.298187,103.925392 339.396057,104.004044 
	C336.112640,104.070221 332.035034,102.864349 329.630096,100.731781 
	C323.995941,95.735718 322.520721,84.189003 326.374878,77.660248 
	C327.597717,75.588799 330.590118,74.561981 333.179443,73.045860 
z"/>
<path fill="#000000" opacity="1.000000" stroke="none" 
	d="
M174.082581,88.628067 
	C174.104782,86.199570 173.852661,84.139839 174.267288,82.224457 
	C175.210114,77.869247 176.735992,73.825150 182.060547,73.098885 
	C187.235977,72.392952 191.753677,74.482689 193.991806,79.324234 
	C196.531891,84.818977 197.904068,90.519600 196.094879,96.711121 
	C193.817551,104.504654 186.126740,107.383476 180.513123,101.563118 
	C177.402588,98.338013 176.182922,93.289177 174.082581,88.628067 
z"/>
<path fill="#000000" opacity="1.000000" stroke="none" 
	d="
M506.972656,106.043457 
	C504.427704,103.351334 504.122345,100.672272 506.979248,97.779312 
	C510.505096,100.414017 507.384399,102.900429 507.000793,105.719193 
	C506.924957,106.081085 506.956116,106.053688 506.972656,106.043457 
z"/>
<path fill="#000000" opacity="1.000000" stroke="none" 
	d="
M503.394653,95.623444 
	C503.067841,95.160881 502.908783,94.781105 502.749695,94.401321 
	C503.173157,94.490120 503.596619,94.578911 504.020081,94.667709 
	C503.867523,95.013878 503.714966,95.360054 503.394653,95.623444 
z"/>
</svg>